# Created by Kenney (www.kenney.nl)

mtllib cake_2.mtl

g mergedBlocks

v 0.1432503 -0.075 0.23175
v 0.1432503 -0.075 -0.23175
v -0.1432497 -0.075 0.23175
v -0.1432497 -0.075 -0.23175
v -0.1432497 0.075 -0.23175
v -0.1432497 0.075 0.23175
v 0.1432503 0.075 -0.23175
v 0.1432503 0.075 0.23175
v 0.1406247 0 0.1312499
v 0.1593748 0 0.1312499
v 0.1406247 0 0.1687502
v 0.1593748 0 0.1687502
v 0.1499998 -0.075 0.2343756
v 0.1499998 0 0.2343756
v 0.1593749 -0.075 0.2250005
v 0.1593749 0 0.2250005
v 0.1406247 -0.075 0.2250005
v 0.1406247 0 0.2250005
v 0.1406247 0 0.0749995
v 0.1406247 -0.075 0.0749995
v 0.1499998 0 0.06562443
v 0.1499998 -0.075 0.06562443
v 0.1593748 -0.075 0.07499949
v 0.1593748 0 0.09374962
v 0.1593748 0 0.07499949
v 0.1593748 -0.03 0.09374962
v 0.1593748 -0.03 0.2062504
v 0.1593748 0 0.2062504
v 0.1593748 -0.03 0.1312499
v 0.1593748 -0.03 0.1687502
v 0.1406247 0 0.09374963
v 0.1406247 0 0.2062504
v 0.1406247 -0.03 0.2062504
v 0.1406247 -0.03 0.1312499
v 0.1406247 -0.03 0.1687502
v 0.1406247 -0.03 0.09374963
v 0.1406245 0 -0.01875016
v 0.1593747 0 -0.01875017
v 0.1406245 0 0.01875021
v 0.1593747 0 0.01875021
v 0.1499996 -0.075 0.08437587
v 0.1499996 0 0.08437587
v 0.1593747 -0.075 0.07500076
v 0.1593747 0 0.07500076
v 0.1406245 -0.075 0.07500077
v 0.1406245 0 0.07500077
v 0.1406244 0 -0.07500073
v 0.1406244 -0.075 -0.07500073
v 0.1499995 0 -0.08437582
v 0.1499995 -0.075 -0.08437582
v 0.1593746 -0.075 -0.07500073
v 0.1593747 0 -0.05625054
v 0.1593746 0 -0.07500073
v 0.1593747 -0.03 -0.05625054
v 0.1593747 -0.03 0.05625058
v 0.1593747 0 0.05625058
v 0.1593747 -0.03 -0.01875017
v 0.1593747 -0.03 0.01875021
v 0.1406245 0 -0.05625054
v 0.1406245 0 0.05625058
v 0.1406245 -0.03 0.05625058
v 0.1406245 -0.03 -0.01875016
v 0.1406245 -0.03 0.01875021
v 0.1406245 -0.03 -0.05625054
v 0.1406246 0 -0.1687502
v 0.1593747 0 -0.1687502
v 0.1406246 0 -0.1312498
v 0.1593747 0 -0.1312498
v 0.1499996 -0.075 -0.06562423
v 0.1499996 0 -0.06562423
v 0.1593747 -0.075 -0.07499932
v 0.1593747 0 -0.07499932
v 0.1406246 -0.075 -0.07499932
v 0.1406246 0 -0.07499932
v 0.1406246 0 -0.2250006
v 0.1406246 -0.075 -0.2250006
v 0.1499996 0 -0.2343757
v 0.1499996 -0.075 -0.2343757
v 0.1593747 -0.075 -0.2250006
v 0.1593747 0 -0.2062505
v 0.1593747 0 -0.2250006
v 0.1593747 -0.03 -0.2062505
v 0.1593747 -0.03 -0.09374949
v 0.1593747 0 -0.09374949
v 0.1593747 -0.03 -0.1687502
v 0.1593747 -0.03 -0.1312498
v 0.1406246 0 -0.2062505
v 0.1406246 0 -0.09374949
v 0.1406246 -0.03 -0.09374949
v 0.1406246 -0.03 -0.1687502
v 0.1406246 -0.03 -0.1312498
v 0.1406246 -0.03 -0.2062505
v 0.09375031 0 -0.244375
v 0.09375031 0 -0.225625
v 0.05625031 0 -0.244375
v 0.05625031 0 -0.225625
v -0.00937469 -0.075 -0.235
v -0.00937469 0 -0.235
v 3.099442E-07 -0.075 -0.225625
v 3.099442E-07 0 -0.225625
v 3.099442E-07 -0.075 -0.244375
v 3.099442E-07 0 -0.244375
v 0.1500003 0 -0.244375
v 0.1500003 -0.075 -0.244375
v 0.1593753 0 -0.235
v 0.1593753 -0.075 -0.235
v 0.1500003 -0.075 -0.225625
v 0.1312503 0 -0.225625
v 0.1500003 0 -0.225625
v 0.1312503 -0.03 -0.225625
v 0.01875031 -0.03 -0.225625
v 0.01875031 0 -0.225625
v 0.09375031 -0.03 -0.225625
v 0.05625031 -0.03 -0.225625
v 0.1312503 0 -0.244375
v 0.01875031 0 -0.244375
v 0.01875031 -0.03 -0.244375
v 0.09375031 -0.03 -0.244375
v 0.05625031 -0.03 -0.244375
v 0.1312503 -0.03 -0.244375
v -0.05624969 0 -0.244375
v -0.05624969 0 -0.225625
v -0.09374969 0 -0.244375
v -0.09374969 0 -0.225625
v -0.1593747 -0.075 -0.235
v -0.1593747 0 -0.235
v -0.1499997 -0.075 -0.225625
v -0.1499997 0 -0.225625
v -0.1499997 -0.075 -0.244375
v -0.1499997 0 -0.244375
v 0.009375311 0 -0.235
v 0.009375311 -0.075 -0.235
v -0.01874969 0 -0.225625
v -0.01874969 -0.03 -0.225625
v -0.1312497 -0.03 -0.225625
v -0.1312497 0 -0.225625
v -0.05624969 -0.03 -0.225625
v -0.09374969 -0.03 -0.225625
v -0.01874969 0 -0.244375
v -0.1312497 0 -0.244375
v -0.1312497 -0.03 -0.244375
v -0.05624969 -0.03 -0.244375
v -0.09374969 -0.03 -0.244375
v -0.01874969 -0.03 -0.244375
v -0.1593753 0 -0.1687501
v -0.1406252 0 -0.1687501
v -0.1593753 0 -0.1312498
v -0.1406252 0 -0.1312498
v -0.1500003 -0.075 -0.06562433
v -0.1500003 0 -0.06562433
v -0.1406252 -0.075 -0.07499941
v -0.1406252 0 -0.07499941
v -0.1593753 -0.075 -0.0749994
v -0.1593753 0 -0.0749994
v -0.1593754 0 -0.2250005
v -0.1593754 -0.075 -0.2250005
v -0.1500003 0 -0.2343756
v -0.1500003 -0.075 -0.2343756
v -0.1406252 -0.075 -0.2250006
v -0.1406252 0 -0.2062504
v -0.1406252 0 -0.2250006
v -0.1406252 -0.03 -0.2062504
v -0.1406252 -0.03 -0.09374955
v -0.1406252 0 -0.09374955
v -0.1406252 -0.03 -0.1687501
v -0.1406252 -0.03 -0.1312498
v -0.1593754 0 -0.2062504
v -0.1593753 0 -0.09374955
v -0.1593753 -0.03 -0.09374955
v -0.1593753 -0.03 -0.1687501
v -0.1593753 -0.03 -0.1312498
v -0.1593754 -0.03 -0.2062504
v -0.1593753 0 -0.01875012
v -0.1406252 0 -0.01875012
v -0.1593753 0 0.01875016
v -0.1406252 0 0.01875016
v -0.1500003 -0.075 0.08437566
v -0.1500003 0 0.08437566
v -0.1406252 -0.075 0.07500058
v -0.1406252 0 0.07500058
v -0.1593753 -0.075 0.07500059
v -0.1593753 0 0.07500059
v -0.1593753 0 -0.07500055
v -0.1593753 -0.075 -0.07500055
v -0.1500003 0 -0.08437561
v -0.1500003 -0.075 -0.08437561
v -0.1406252 -0.075 -0.07500055
v -0.1406252 0 -0.0562504
v -0.1406252 0 -0.07500055
v -0.1406252 -0.03 -0.0562504
v -0.1406252 -0.03 0.05625044
v -0.1406252 0 0.05625044
v -0.1406252 -0.03 -0.01875012
v -0.1406252 -0.03 0.01875016
v -0.1593753 0 -0.0562504
v -0.1593753 0 0.05625045
v -0.1593753 -0.03 0.05625045
v -0.1593753 -0.03 -0.01875012
v -0.1593753 -0.03 0.01875016
v -0.1593753 -0.03 -0.0562504
v -0.1593753 0 0.1312499
v -0.1406251 0 0.1312499
v -0.1593753 0 0.1687502
v -0.1406251 0 0.1687502
v -0.1500002 -0.075 0.2343756
v -0.1500002 0 0.2343756
v -0.1406251 -0.075 0.2250005
v -0.1406251 0 0.2250005
v -0.1593753 -0.075 0.2250005
v -0.1593753 0 0.2250005
v -0.1593753 0 0.07499952
v -0.1593753 -0.075 0.07499952
v -0.1500002 0 0.06562445
v -0.1500002 -0.075 0.06562445
v -0.1406252 -0.075 0.07499951
v -0.1406251 0 0.09374964
v -0.1406252 0 0.07499951
v -0.1406251 -0.03 0.09374964
v -0.1406251 -0.03 0.2062504
v -0.1406251 0 0.2062504
v -0.1406251 -0.03 0.1312499
v -0.1406251 -0.03 0.1687502
v -0.1593753 0 0.09374965
v -0.1593753 0 0.2062504
v -0.1593753 -0.03 0.2062504
v -0.1593753 -0.03 0.1312499
v -0.1593753 -0.03 0.1687502
v -0.1593753 -0.03 0.09374965
v -0.05624969 0 0.225625
v -0.05624969 0 0.244375
v -0.09374969 0 0.225625
v -0.09374969 0 0.244375
v -0.1593747 -0.075 0.235
v -0.1593747 0 0.235
v -0.1499997 -0.075 0.244375
v -0.1499997 0 0.244375
v -0.1499997 -0.075 0.225625
v -0.1499997 0 0.225625
v 3.099442E-07 0 0.225625
v 3.099442E-07 -0.075 0.225625
v 0.009375311 0 0.235
v 0.009375311 -0.075 0.235
v 3.099442E-07 -0.075 0.244375
v -0.01874969 0 0.244375
v 3.099442E-07 0 0.244375
v -0.01874969 -0.03 0.244375
v -0.1312497 -0.03 0.244375
v -0.1312497 0 0.244375
v -0.05624969 -0.03 0.244375
v -0.09374969 -0.03 0.244375
v -0.01874969 0 0.225625
v -0.1312497 0 0.225625
v -0.1312497 -0.03 0.225625
v -0.05624969 -0.03 0.225625
v -0.09374969 -0.03 0.225625
v -0.01874969 -0.03 0.225625
v 0.09375031 0 0.225625
v 0.09375031 0 0.244375
v 0.05625031 0 0.225625
v 0.05625031 0 0.244375
v -0.00937469 -0.075 0.235
v -0.00937469 0 0.235
v 0.1500003 0 0.225625
v 0.1500003 -0.075 0.225625
v 0.1593753 0 0.235
v 0.1593753 -0.075 0.235
v 0.1500003 -0.075 0.244375
v 0.1312503 0 0.244375
v 0.1500003 0 0.244375
v 0.1312503 -0.03 0.244375
v 0.01875031 -0.03 0.244375
v 0.01875031 0 0.244375
v 0.09375031 -0.03 0.244375
v 0.05625031 -0.03 0.244375
v 0.1312503 0 0.225625
v 0.01875031 0 0.225625
v 0.01875031 -0.03 0.225625
v 0.09375031 -0.03 0.225625
v 0.05625031 -0.03 0.225625
v 0.1312503 -0.03 0.225625

vn 0 -0.05 0
vn -0.05 0 0
vn 0 0 -0.05
vn 0 0 0.05
vn 0.05 0 0
vn 0 0.05 0
vn 0 0.04999965 0
vn 0.03535534 0 0.03535534
vn -0.03535534 0 0.03535534
vn -0.03535534 0 -0.03535534
vn 0 -0.04999965 0
vn 0.05 0 -5.960464E-09
vn 0.03535534 0 -0.03535534
vn -0.05 0 5.960464E-09
vn 5.960464E-09 0 0.05
vn -5.960464E-09 0 -0.05
vn 0 0.04999951 0
vn 0 -0.04999951 0
vn 0 0.04999956 0
vn 0 -0.04999956 0
vn -0.03535534 0 0.03535534
vn -0.03535534 0 -0.03535534
vn 0.03535534 0 -0.03535534
vn 0.03535534 0 0.03535534
vn 0 0.04999961 0
vn 0.03535534 0 0.03535533
vn -0.03535533 0 0.03535534
vn -0.03535534 0 -0.03535533
vn 0 -0.04999961 0
vn 0.05 0 -5.960464E-09
vn 0.03535533 0 -0.03535534
vn -0.05 0 5.960464E-09
vn 5.960464E-09 0 0.05
vn -5.960464E-09 0 -0.05
vn 0 0.04999962 0
vn 0 -0.04999962 0
vn 0 0.04999965 0
vn 0 -0.04999965 0

vt 0.3125 0.0625
vt 0.8125 0.0625

usemtl cake_2

f 3/1/1 2/1/1 1/1/1
f 2/1/1 3/1/1 4/1/1
f 3/1/2 5/1/2 4/1/2
f 5/1/2 3/1/2 6/1/2
f 5/1/3 2/1/3 4/1/3
f 2/1/3 5/1/3 7/1/3
f 8/1/4 3/1/4 1/1/4
f 3/1/4 8/1/4 6/1/4
f 8/1/5 2/1/5 7/1/5
f 2/1/5 8/1/5 1/1/5
f 5/1/6 8/1/6 7/1/6
f 8/1/6 5/1/6 6/1/6

usemtl cake_2

f 11/2/7 10/2/7 9/2/7
f 10/2/7 11/2/7 12/2/7
f 15/2/8 14/2/8 13/2/8
f 14/2/8 15/2/8 16/2/8
f 14/2/9 17/2/9 13/2/9
f 17/2/9 14/2/9 18/2/9
f 21/2/10 20/2/10 19/2/10
f 20/2/10 21/2/10 22/2/10
f 23/2/11 20/2/11 22/2/11
f 20/2/11 23/2/11 17/2/11
f 17/2/11 23/2/11 15/2/11
f 17/2/11 15/2/11 13/2/11
f 26/2/12 25/2/12 24/2/12
f 26/2/12 23/2/12 25/2/12
f 23/2/12 26/2/12 15/2/12
f 27/2/12 15/2/12 26/2/12
f 15/2/12 27/2/12 16/2/12
f 16/2/12 27/2/12 28/2/12
f 27/2/12 26/2/12 29/2/12
f 27/2/12 29/2/12 30/2/12
f 10/2/12 30/2/12 29/2/12
f 30/2/12 10/2/12 12/2/12
f 19/2/7 25/2/7 21/2/7
f 25/2/7 19/2/7 31/2/7
f 25/2/7 31/2/7 24/2/7
f 18/2/7 28/2/7 32/2/7
f 28/2/7 18/2/7 16/2/7
f 16/2/7 18/2/7 14/2/7
f 21/2/13 23/2/13 22/2/13
f 23/2/13 21/2/13 25/2/13
f 33/2/14 18/2/14 32/2/14
f 33/2/14 17/2/14 18/2/14
f 17/2/14 33/2/14 20/2/14
f 20/2/14 33/2/14 34/2/14
f 35/2/14 34/2/14 33/2/14
f 34/2/14 35/2/14 9/2/14
f 9/2/14 35/2/14 11/2/14
f 36/2/14 20/2/14 34/2/14
f 20/2/14 36/2/14 19/2/14
f 19/2/14 36/2/14 31/2/14
f 33/2/7 30/2/7 35/2/7
f 30/2/7 33/2/7 27/2/7
f 30/2/15 11/2/15 35/2/15
f 11/2/15 30/2/15 12/2/15
f 28/2/16 33/2/16 32/2/16
f 33/2/16 28/2/16 27/2/16
f 34/2/7 26/2/7 36/2/7
f 26/2/7 34/2/7 29/2/7
f 10/2/16 34/2/16 9/2/16
f 34/2/16 10/2/16 29/2/16
f 36/2/15 24/2/15 31/2/15
f 24/2/15 36/2/15 26/2/15
f 39/2/17 38/2/17 37/2/17
f 38/2/17 39/2/17 40/2/17
f 43/2/8 42/2/8 41/2/8
f 42/2/8 43/2/8 44/2/8
f 42/2/9 45/2/9 41/2/9
f 45/2/9 42/2/9 46/2/9
f 49/2/10 48/2/10 47/2/10
f 48/2/10 49/2/10 50/2/10
f 51/2/18 48/2/18 50/2/18
f 48/2/18 51/2/18 45/2/18
f 45/2/18 51/2/18 43/2/18
f 45/2/18 43/2/18 41/2/18
f 54/2/12 53/2/12 52/2/12
f 54/2/12 51/2/12 53/2/12
f 51/2/12 54/2/12 43/2/12
f 55/2/12 43/2/12 54/2/12
f 43/2/12 55/2/12 44/2/12
f 44/2/12 55/2/12 56/2/12
f 55/2/12 54/2/12 57/2/12
f 55/2/12 57/2/12 58/2/12
f 38/2/12 58/2/12 57/2/12
f 58/2/12 38/2/12 40/2/12
f 47/2/17 53/2/17 49/2/17
f 53/2/17 47/2/17 59/2/17
f 53/2/17 59/2/17 52/2/17
f 46/2/17 56/2/17 60/2/17
f 56/2/17 46/2/17 44/2/17
f 44/2/17 46/2/17 42/2/17
f 49/2/13 51/2/13 50/2/13
f 51/2/13 49/2/13 53/2/13
f 61/2/14 46/2/14 60/2/14
f 61/2/14 45/2/14 46/2/14
f 45/2/14 61/2/14 48/2/14
f 48/2/14 61/2/14 62/2/14
f 63/2/14 62/2/14 61/2/14
f 62/2/14 63/2/14 37/2/14
f 37/2/14 63/2/14 39/2/14
f 64/2/14 48/2/14 62/2/14
f 48/2/14 64/2/14 47/2/14
f 47/2/14 64/2/14 59/2/14
f 61/2/17 58/2/17 63/2/17
f 58/2/17 61/2/17 55/2/17
f 58/2/15 39/2/15 63/2/15
f 39/2/15 58/2/15 40/2/15
f 56/2/16 61/2/16 60/2/16
f 61/2/16 56/2/16 55/2/16
f 62/2/17 54/2/17 64/2/17
f 54/2/17 62/2/17 57/2/17
f 38/2/16 62/2/16 37/2/16
f 62/2/16 38/2/16 57/2/16
f 64/2/15 52/2/15 59/2/15
f 52/2/15 64/2/15 54/2/15
f 67/2/19 66/2/19 65/2/19
f 66/2/19 67/2/19 68/2/19
f 71/2/8 70/2/8 69/2/8
f 70/2/8 71/2/8 72/2/8
f 70/2/9 73/2/9 69/2/9
f 73/2/9 70/2/9 74/2/9
f 77/2/10 76/2/10 75/2/10
f 76/2/10 77/2/10 78/2/10
f 79/2/20 76/2/20 78/2/20
f 76/2/20 79/2/20 73/2/20
f 73/2/20 79/2/20 71/2/20
f 73/2/20 71/2/20 69/2/20
f 82/2/12 81/2/12 80/2/12
f 82/2/12 79/2/12 81/2/12
f 79/2/12 82/2/12 71/2/12
f 83/2/12 71/2/12 82/2/12
f 71/2/12 83/2/12 72/2/12
f 72/2/12 83/2/12 84/2/12
f 83/2/12 82/2/12 85/2/12
f 83/2/12 85/2/12 86/2/12
f 66/2/12 86/2/12 85/2/12
f 86/2/12 66/2/12 68/2/12
f 75/2/19 81/2/19 77/2/19
f 81/2/19 75/2/19 87/2/19
f 81/2/19 87/2/19 80/2/19
f 74/2/19 84/2/19 88/2/19
f 84/2/19 74/2/19 72/2/19
f 72/2/19 74/2/19 70/2/19
f 77/2/13 79/2/13 78/2/13
f 79/2/13 77/2/13 81/2/13
f 89/2/14 74/2/14 88/2/14
f 89/2/14 73/2/14 74/2/14
f 73/2/14 89/2/14 76/2/14
f 76/2/14 89/2/14 90/2/14
f 91/2/14 90/2/14 89/2/14
f 90/2/14 91/2/14 65/2/14
f 65/2/14 91/2/14 67/2/14
f 92/2/14 76/2/14 90/2/14
f 76/2/14 92/2/14 75/2/14
f 75/2/14 92/2/14 87/2/14
f 89/2/19 86/2/19 91/2/19
f 86/2/19 89/2/19 83/2/19
f 86/2/15 67/2/15 91/2/15
f 67/2/15 86/2/15 68/2/15
f 84/2/16 89/2/16 88/2/16
f 89/2/16 84/2/16 83/2/16
f 90/2/19 82/2/19 92/2/19
f 82/2/19 90/2/19 85/2/19
f 66/2/16 90/2/16 65/2/16
f 90/2/16 66/2/16 85/2/16
f 92/2/15 80/2/15 87/2/15
f 80/2/15 92/2/15 82/2/15
f 95/2/6 94/2/6 93/2/6
f 94/2/6 95/2/6 96/2/6
f 99/2/21 98/2/21 97/2/21
f 98/2/21 99/2/21 100/2/21
f 98/2/22 101/2/22 97/2/22
f 101/2/22 98/2/22 102/2/22
f 105/2/23 104/2/23 103/2/23
f 104/2/23 105/2/23 106/2/23
f 107/2/1 104/2/1 106/2/1
f 104/2/1 107/2/1 101/2/1
f 101/2/1 107/2/1 99/2/1
f 101/2/1 99/2/1 97/2/1
f 110/2/4 109/2/4 108/2/4
f 110/2/4 107/2/4 109/2/4
f 107/2/4 110/2/4 99/2/4
f 111/2/4 99/2/4 110/2/4
f 99/2/4 111/2/4 100/2/4
f 100/2/4 111/2/4 112/2/4
f 111/2/4 110/2/4 113/2/4
f 111/2/4 113/2/4 114/2/4
f 94/2/4 114/2/4 113/2/4
f 114/2/4 94/2/4 96/2/4
f 103/2/6 109/2/6 105/2/6
f 109/2/6 103/2/6 115/2/6
f 109/2/6 115/2/6 108/2/6
f 102/2/6 112/2/6 116/2/6
f 112/2/6 102/2/6 100/2/6
f 100/2/6 102/2/6 98/2/6
f 105/2/24 107/2/24 106/2/24
f 107/2/24 105/2/24 109/2/24
f 117/2/3 102/2/3 116/2/3
f 117/2/3 101/2/3 102/2/3
f 101/2/3 117/2/3 104/2/3
f 104/2/3 117/2/3 118/2/3
f 119/2/3 118/2/3 117/2/3
f 118/2/3 119/2/3 93/2/3
f 93/2/3 119/2/3 95/2/3
f 120/2/3 104/2/3 118/2/3
f 104/2/3 120/2/3 103/2/3
f 103/2/3 120/2/3 115/2/3
f 117/2/6 114/2/6 119/2/6
f 114/2/6 117/2/6 111/2/6
f 114/2/2 95/2/2 119/2/2
f 95/2/2 114/2/2 96/2/2
f 112/2/5 117/2/5 116/2/5
f 117/2/5 112/2/5 111/2/5
f 118/2/6 110/2/6 120/2/6
f 110/2/6 118/2/6 113/2/6
f 94/2/5 118/2/5 93/2/5
f 118/2/5 94/2/5 113/2/5
f 120/2/2 108/2/2 115/2/2
f 108/2/2 120/2/2 110/2/2
f 123/2/6 122/2/6 121/2/6
f 122/2/6 123/2/6 124/2/6
f 127/2/21 126/2/21 125/2/21
f 126/2/21 127/2/21 128/2/21
f 126/2/22 129/2/22 125/2/22
f 129/2/22 126/2/22 130/2/22
f 131/2/23 101/2/23 102/2/23
f 101/2/23 131/2/23 132/2/23
f 99/2/1 101/2/1 132/2/1
f 101/2/1 99/2/1 129/2/1
f 129/2/1 99/2/1 127/2/1
f 129/2/1 127/2/1 125/2/1
f 134/2/4 100/2/4 133/2/4
f 134/2/4 99/2/4 100/2/4
f 99/2/4 134/2/4 127/2/4
f 135/2/4 127/2/4 134/2/4
f 127/2/4 135/2/4 128/2/4
f 128/2/4 135/2/4 136/2/4
f 135/2/4 134/2/4 137/2/4
f 135/2/4 137/2/4 138/2/4
f 122/2/4 138/2/4 137/2/4
f 138/2/4 122/2/4 124/2/4
f 102/2/6 100/2/6 131/2/6
f 100/2/6 102/2/6 139/2/6
f 100/2/6 139/2/6 133/2/6
f 130/2/6 136/2/6 140/2/6
f 136/2/6 130/2/6 128/2/6
f 128/2/6 130/2/6 126/2/6
f 131/2/24 99/2/24 132/2/24
f 99/2/24 131/2/24 100/2/24
f 141/2/3 130/2/3 140/2/3
f 141/2/3 129/2/3 130/2/3
f 129/2/3 141/2/3 101/2/3
f 101/2/3 141/2/3 142/2/3
f 143/2/3 142/2/3 141/2/3
f 142/2/3 143/2/3 121/2/3
f 121/2/3 143/2/3 123/2/3
f 144/2/3 101/2/3 142/2/3
f 101/2/3 144/2/3 102/2/3
f 102/2/3 144/2/3 139/2/3
f 141/2/6 138/2/6 143/2/6
f 138/2/6 141/2/6 135/2/6
f 138/2/2 123/2/2 143/2/2
f 123/2/2 138/2/2 124/2/2
f 136/2/5 141/2/5 140/2/5
f 141/2/5 136/2/5 135/2/5
f 142/2/6 134/2/6 144/2/6
f 134/2/6 142/2/6 137/2/6
f 122/2/5 142/2/5 121/2/5
f 142/2/5 122/2/5 137/2/5
f 144/2/2 133/2/2 139/2/2
f 133/2/2 144/2/2 134/2/2
f 147/2/25 146/2/25 145/2/25
f 146/2/25 147/2/25 148/2/25
f 151/2/26 150/2/26 149/2/26
f 150/2/26 151/2/26 152/2/26
f 150/2/27 153/2/27 149/2/27
f 153/2/27 150/2/27 154/2/27
f 157/2/28 156/2/28 155/2/28
f 156/2/28 157/2/28 158/2/28
f 159/2/29 156/2/29 158/2/29
f 156/2/29 159/2/29 153/2/29
f 153/2/29 159/2/29 151/2/29
f 153/2/29 151/2/29 149/2/29
f 162/2/30 161/2/30 160/2/30
f 162/2/30 159/2/30 161/2/30
f 159/2/30 162/2/30 151/2/30
f 163/2/30 151/2/30 162/2/30
f 151/2/30 163/2/30 152/2/30
f 152/2/30 163/2/30 164/2/30
f 163/2/30 162/2/30 165/2/30
f 163/2/30 165/2/30 166/2/30
f 146/2/30 166/2/30 165/2/30
f 166/2/30 146/2/30 148/2/30
f 155/2/25 161/2/25 157/2/25
f 161/2/25 155/2/25 167/2/25
f 161/2/25 167/2/25 160/2/25
f 154/2/25 164/2/25 168/2/25
f 164/2/25 154/2/25 152/2/25
f 152/2/25 154/2/25 150/2/25
f 157/2/31 159/2/31 158/2/31
f 159/2/31 157/2/31 161/2/31
f 169/2/32 154/2/32 168/2/32
f 169/2/32 153/2/32 154/2/32
f 153/2/32 169/2/32 156/2/32
f 156/2/32 169/2/32 170/2/32
f 171/2/32 170/2/32 169/2/32
f 170/2/32 171/2/32 145/2/32
f 145/2/32 171/2/32 147/2/32
f 172/2/32 156/2/32 170/2/32
f 156/2/32 172/2/32 155/2/32
f 155/2/32 172/2/32 167/2/32
f 169/2/25 166/2/25 171/2/25
f 166/2/25 169/2/25 163/2/25
f 166/2/33 147/2/33 171/2/33
f 147/2/33 166/2/33 148/2/33
f 164/2/34 169/2/34 168/2/34
f 169/2/34 164/2/34 163/2/34
f 170/2/25 162/2/25 172/2/25
f 162/2/25 170/2/25 165/2/25
f 146/2/34 170/2/34 145/2/34
f 170/2/34 146/2/34 165/2/34
f 172/2/33 160/2/33 167/2/33
f 160/2/33 172/2/33 162/2/33
f 175/2/35 174/2/35 173/2/35
f 174/2/35 175/2/35 176/2/35
f 179/2/8 178/2/8 177/2/8
f 178/2/8 179/2/8 180/2/8
f 178/2/9 181/2/9 177/2/9
f 181/2/9 178/2/9 182/2/9
f 185/2/10 184/2/10 183/2/10
f 184/2/10 185/2/10 186/2/10
f 187/2/36 184/2/36 186/2/36
f 184/2/36 187/2/36 181/2/36
f 181/2/36 187/2/36 179/2/36
f 181/2/36 179/2/36 177/2/36
f 190/2/12 189/2/12 188/2/12
f 190/2/12 187/2/12 189/2/12
f 187/2/12 190/2/12 179/2/12
f 191/2/12 179/2/12 190/2/12
f 179/2/12 191/2/12 180/2/12
f 180/2/12 191/2/12 192/2/12
f 191/2/12 190/2/12 193/2/12
f 191/2/12 193/2/12 194/2/12
f 174/2/12 194/2/12 193/2/12
f 194/2/12 174/2/12 176/2/12
f 183/2/35 189/2/35 185/2/35
f 189/2/35 183/2/35 195/2/35
f 189/2/35 195/2/35 188/2/35
f 182/2/35 192/2/35 196/2/35
f 192/2/35 182/2/35 180/2/35
f 180/2/35 182/2/35 178/2/35
f 185/2/13 187/2/13 186/2/13
f 187/2/13 185/2/13 189/2/13
f 197/2/14 182/2/14 196/2/14
f 197/2/14 181/2/14 182/2/14
f 181/2/14 197/2/14 184/2/14
f 184/2/14 197/2/14 198/2/14
f 199/2/14 198/2/14 197/2/14
f 198/2/14 199/2/14 173/2/14
f 173/2/14 199/2/14 175/2/14
f 200/2/14 184/2/14 198/2/14
f 184/2/14 200/2/14 183/2/14
f 183/2/14 200/2/14 195/2/14
f 197/2/35 194/2/35 199/2/35
f 194/2/35 197/2/35 191/2/35
f 194/2/15 175/2/15 199/2/15
f 175/2/15 194/2/15 176/2/15
f 192/2/16 197/2/16 196/2/16
f 197/2/16 192/2/16 191/2/16
f 198/2/35 190/2/35 200/2/35
f 190/2/35 198/2/35 193/2/35
f 174/2/16 198/2/16 173/2/16
f 198/2/16 174/2/16 193/2/16
f 200/2/15 188/2/15 195/2/15
f 188/2/15 200/2/15 190/2/15
f 203/2/37 202/2/37 201/2/37
f 202/2/37 203/2/37 204/2/37
f 207/2/26 206/2/26 205/2/26
f 206/2/26 207/2/26 208/2/26
f 206/2/27 209/2/27 205/2/27
f 209/2/27 206/2/27 210/2/27
f 213/2/28 212/2/28 211/2/28
f 212/2/28 213/2/28 214/2/28
f 215/2/38 212/2/38 214/2/38
f 212/2/38 215/2/38 209/2/38
f 209/2/38 215/2/38 207/2/38
f 209/2/38 207/2/38 205/2/38
f 218/2/30 217/2/30 216/2/30
f 218/2/30 215/2/30 217/2/30
f 215/2/30 218/2/30 207/2/30
f 219/2/30 207/2/30 218/2/30
f 207/2/30 219/2/30 208/2/30
f 208/2/30 219/2/30 220/2/30
f 219/2/30 218/2/30 221/2/30
f 219/2/30 221/2/30 222/2/30
f 202/2/30 222/2/30 221/2/30
f 222/2/30 202/2/30 204/2/30
f 211/2/37 217/2/37 213/2/37
f 217/2/37 211/2/37 223/2/37
f 217/2/37 223/2/37 216/2/37
f 210/2/37 220/2/37 224/2/37
f 220/2/37 210/2/37 208/2/37
f 208/2/37 210/2/37 206/2/37
f 213/2/31 215/2/31 214/2/31
f 215/2/31 213/2/31 217/2/31
f 225/2/32 210/2/32 224/2/32
f 225/2/32 209/2/32 210/2/32
f 209/2/32 225/2/32 212/2/32
f 212/2/32 225/2/32 226/2/32
f 227/2/32 226/2/32 225/2/32
f 226/2/32 227/2/32 201/2/32
f 201/2/32 227/2/32 203/2/32
f 228/2/32 212/2/32 226/2/32
f 212/2/32 228/2/32 211/2/32
f 211/2/32 228/2/32 223/2/32
f 225/2/37 222/2/37 227/2/37
f 222/2/37 225/2/37 219/2/37
f 222/2/33 203/2/33 227/2/33
f 203/2/33 222/2/33 204/2/33
f 220/2/34 225/2/34 224/2/34
f 225/2/34 220/2/34 219/2/34
f 226/2/37 218/2/37 228/2/37
f 218/2/37 226/2/37 221/2/37
f 202/2/34 226/2/34 201/2/34
f 226/2/34 202/2/34 221/2/34
f 228/2/33 216/2/33 223/2/33
f 216/2/33 228/2/33 218/2/33
f 231/2/6 230/2/6 229/2/6
f 230/2/6 231/2/6 232/2/6
f 235/2/21 234/2/21 233/2/21
f 234/2/21 235/2/21 236/2/21
f 234/2/22 237/2/22 233/2/22
f 237/2/22 234/2/22 238/2/22
f 241/2/23 240/2/23 239/2/23
f 240/2/23 241/2/23 242/2/23
f 243/2/1 240/2/1 242/2/1
f 240/2/1 243/2/1 237/2/1
f 237/2/1 243/2/1 235/2/1
f 237/2/1 235/2/1 233/2/1
f 246/2/4 245/2/4 244/2/4
f 246/2/4 243/2/4 245/2/4
f 243/2/4 246/2/4 235/2/4
f 247/2/4 235/2/4 246/2/4
f 235/2/4 247/2/4 236/2/4
f 236/2/4 247/2/4 248/2/4
f 247/2/4 246/2/4 249/2/4
f 247/2/4 249/2/4 250/2/4
f 230/2/4 250/2/4 249/2/4
f 250/2/4 230/2/4 232/2/4
f 239/2/6 245/2/6 241/2/6
f 245/2/6 239/2/6 251/2/6
f 245/2/6 251/2/6 244/2/6
f 238/2/6 248/2/6 252/2/6
f 248/2/6 238/2/6 236/2/6
f 236/2/6 238/2/6 234/2/6
f 241/2/24 243/2/24 242/2/24
f 243/2/24 241/2/24 245/2/24
f 253/2/3 238/2/3 252/2/3
f 253/2/3 237/2/3 238/2/3
f 237/2/3 253/2/3 240/2/3
f 240/2/3 253/2/3 254/2/3
f 255/2/3 254/2/3 253/2/3
f 254/2/3 255/2/3 229/2/3
f 229/2/3 255/2/3 231/2/3
f 256/2/3 240/2/3 254/2/3
f 240/2/3 256/2/3 239/2/3
f 239/2/3 256/2/3 251/2/3
f 253/2/6 250/2/6 255/2/6
f 250/2/6 253/2/6 247/2/6
f 250/2/2 231/2/2 255/2/2
f 231/2/2 250/2/2 232/2/2
f 248/2/5 253/2/5 252/2/5
f 253/2/5 248/2/5 247/2/5
f 254/2/6 246/2/6 256/2/6
f 246/2/6 254/2/6 249/2/6
f 230/2/5 254/2/5 229/2/5
f 254/2/5 230/2/5 249/2/5
f 256/2/2 244/2/2 251/2/2
f 244/2/2 256/2/2 246/2/2
f 259/2/6 258/2/6 257/2/6
f 258/2/6 259/2/6 260/2/6
f 243/2/21 262/2/21 261/2/21
f 262/2/21 243/2/21 245/2/21
f 262/2/22 240/2/22 261/2/22
f 240/2/22 262/2/22 239/2/22
f 265/2/23 264/2/23 263/2/23
f 264/2/23 265/2/23 266/2/23
f 267/2/1 264/2/1 266/2/1
f 264/2/1 267/2/1 240/2/1
f 240/2/1 267/2/1 243/2/1
f 240/2/1 243/2/1 261/2/1
f 270/2/4 269/2/4 268/2/4
f 270/2/4 267/2/4 269/2/4
f 267/2/4 270/2/4 243/2/4
f 271/2/4 243/2/4 270/2/4
f 243/2/4 271/2/4 245/2/4
f 245/2/4 271/2/4 272/2/4
f 271/2/4 270/2/4 273/2/4
f 271/2/4 273/2/4 274/2/4
f 258/2/4 274/2/4 273/2/4
f 274/2/4 258/2/4 260/2/4
f 263/2/6 269/2/6 265/2/6
f 269/2/6 263/2/6 275/2/6
f 269/2/6 275/2/6 268/2/6
f 239/2/6 272/2/6 276/2/6
f 272/2/6 239/2/6 245/2/6
f 245/2/6 239/2/6 262/2/6
f 265/2/24 267/2/24 266/2/24
f 267/2/24 265/2/24 269/2/24
f 277/2/3 239/2/3 276/2/3
f 277/2/3 240/2/3 239/2/3
f 240/2/3 277/2/3 264/2/3
f 264/2/3 277/2/3 278/2/3
f 279/2/3 278/2/3 277/2/3
f 278/2/3 279/2/3 257/2/3
f 257/2/3 279/2/3 259/2/3
f 280/2/3 264/2/3 278/2/3
f 264/2/3 280/2/3 263/2/3
f 263/2/3 280/2/3 275/2/3
f 277/2/6 274/2/6 279/2/6
f 274/2/6 277/2/6 271/2/6
f 274/2/2 259/2/2 279/2/2
f 259/2/2 274/2/2 260/2/2
f 272/2/5 277/2/5 276/2/5
f 277/2/5 272/2/5 271/2/5
f 278/2/6 270/2/6 280/2/6
f 270/2/6 278/2/6 273/2/6
f 258/2/5 278/2/5 257/2/5
f 278/2/5 258/2/5 273/2/5
f 280/2/2 268/2/2 275/2/2
f 268/2/2 280/2/2 270/2/2

